<?xml version="1.0" encoding="UTF-8"?>
<!DOCTYPE svg PUBLIC "-//W3C//DTD SVG 1.1//EN" "http://www.w3.org/Graphics/SVG/1.1/DTD/svg11.dtd">
<!-- Creator: CorelDRAW -->
<svg xmlns="http://www.w3.org/2000/svg" xml:space="preserve" width="7.11111in" height="7.11111in" version="1.1" style="shape-rendering:geometricPrecision; text-rendering:geometricPrecision; image-rendering:optimizeQuality; fill-rule:evenodd; clip-rule:evenodd"
viewBox="0 0 7111 7111"
 xmlns:xlink="http://www.w3.org/1999/xlink">
 <defs>
  <style type="text/css">
   <![CDATA[
    .fil8 {fill:#1AA1FF}
    .fil6 {fill:#29537C}
    .fil1 {fill:#2E5C8A}
    .fil9 {fill:#333333}
    .fil5 {fill:#336699}
    .fil0 {fill:#D0C5F3}
    .fil7 {fill:#E6E6E6}
    .fil4 {fill:#F1F1F1}
    .fil2 {fill:#FF3131}
    .fil10 {fill:#FFA721}
    .fil3 {fill:#FFE4AF}
    .fil11 {fill:white}
   ]]>
  </style>
 </defs>
 <g id="Layer_x0020_1">
  <metadata id="CorelCorpID_0Corel-Layer"/>
  <g id="_584775280">
   <g>
    <path class="fil0" d="M619 2090l0 3773 5873 0 0 -3773c-1003,0 -4869,0 -5873,0z"/>
    <path class="fil1" d="M6613 6104l-6114 0c-67,0 -121,-54 -121,-120l0 -4015c0,-67 54,-121 121,-121l605 0c67,0 121,54 121,121 0,67 -54,121 -121,121l-485 0 0 3773 5873 0 0 -3773 -485 0c-66,0 -121,-54 -121,-121 0,-67 55,-121 121,-121l606 0c66,0 120,54 120,121l0 4015c0,66 -54,120 -120,120z"/>
    <path class="fil2" d="M6007 1151l-4903 0c-67,0 -121,-54 -121,-121l0 -846c0,-67 54,-121 121,-121l4903 0c67,0 121,54 121,121l0 846c0,67 -54,121 -121,121z"/>
    <path class="fil3" d="M6007 3898c-1634,0 -3269,0 -4903,0 -67,0 -121,-54 -121,-121l0 -2747 5145 0 0 0 0 2747c0,67 -54,121 -121,121z"/>
    <g>
     <path class="fil4" d="M1773 667l-268 0c-67,0 -121,-54 -121,-120 0,-67 54,-121 121,-121l268 0c67,0 121,54 121,121 0,66 -54,120 -121,120z"/>
     <path class="fil4" d="M2435 667l-268 0c-66,0 -120,-54 -120,-120 0,-67 54,-121 120,-121l268 0c67,0 121,54 121,121 0,66 -54,120 -121,120z"/>
     <path class="fil4" d="M3097 667l-267 0c-67,0 -121,-54 -121,-120 0,-67 54,-121 121,-121l267 0c67,0 121,54 121,121 0,66 -54,120 -121,120z"/>
    </g>
    <g>
     <path class="fil5" d="M6990 7048l-6869 0c-67,0 -121,-54 -121,-121l0 -943c0,-67 54,-121 121,-121l2244 0 0 0 139 472c15,51 62,86 116,86l1871 0c54,0 101,-35 116,-86l139 -472 2244 0c67,0 121,54 121,121l0 943c0,67 -54,121 -121,121z"/>
     <path class="fil6" d="M2228 5863l137 0 0 0 139 472c15,51 62,86 116,86l1871 0c54,0 101,-35 116,-86l139 -472 137 0c-2,13 -4,25 -8,38l-139 472c-32,108 -131,183 -245,183l-1871 0c-113,0 -213,-75 -245,-183l-139 -472c-4,-13 -6,-25 -8,-38z"/>
     <path class="fil7" d="M2365 5863l2381 0 -139 472c-15,51 -62,86 -116,86l-1871 0c-54,0 -101,-35 -116,-86l-139 -472 0 0z"/>
    </g>
   </g>
   <path class="fil8" d="M2942 2244l-1376 0c-67,0 -121,-54 -121,-120l0 -561c0,-67 54,-121 121,-121l1376 0c67,0 121,54 121,121l0 561c0,66 -54,120 -121,120z"/>
   <g>
    <path class="fil9" d="M5385 1684l-2001 0c-67,0 -121,-54 -121,-121 0,-67 54,-121 121,-121l2001 0c67,0 121,54 121,121 0,67 -54,121 -121,121z"/>
    <path class="fil9" d="M5385 2244l-2001 0c-67,0 -121,-54 -121,-120 0,-67 54,-121 121,-121l2001 0c67,0 121,54 121,121 0,66 -54,120 -121,120z"/>
    <path class="fil9" d="M5385 2805l-3819 0c-67,0 -121,-54 -121,-121 0,-66 54,-120 121,-120l3819 0c67,0 121,54 121,120 0,67 -54,121 -121,121z"/>
   </g>
   <path class="fil10" d="M2178 5512c-659,0 -1194,-536 -1194,-1194 0,-658 535,-1194 1194,-1194 658,0 1193,536 1193,1194 0,658 -535,1194 -1193,1194z"/>
   <path class="fil11" d="M2294 4439l-353 0c-67,0 -121,-54 -121,-121l0 -474c0,-67 54,-121 121,-121l116 0 0 -45c0,-67 54,-121 121,-121 66,0 120,54 120,121l0 45 116 0c67,0 121,54 121,121 0,67 -54,121 -121,121l-236 0 0 0 -1 0 -116 0 0 232 353 0c1,0 3,0 4,0 1,0 2,0 3,0 1,0 2,0 3,0l0 0c1,1 2,1 3,1 1,0 2,0 3,0 1,0 2,0 3,1l0 0c1,0 2,0 3,0l0 0c1,0 2,0 3,1 1,0 2,0 3,0l0 0c1,0 2,1 3,1 1,0 2,0 3,1 0,0 1,0 2,1 1,0 2,0 3,0l0 0c1,1 2,1 3,1l3 2 0 0c1,0 2,0 2,1l3 1 0 0c1,0 2,1 3,1l2 1c1,1 2,1 3,2l0 0c1,0 2,1 3,1 0,1 1,1 2,2 1,0 2,1 3,1l0 0c0,1 1,1 2,2 1,0 2,1 2,1 1,1 2,2 3,2l0 0 2 2c1,0 2,1 2,2 1,0 2,1 2,2l3 2c0,0 1,1 2,1 0,1 1,2 2,3l0 0c1,0 1,1 2,2l0 0c1,0 1,1 2,2 0,0 1,1 2,2l2 2 0 0 1 2c1,1 2,2 2,3l2 2c1,1 1,2 2,2 0,1 1,2 1,3 1,1 1,1 2,2l1 3 2 2 0 0 1 3 1 3c1,0 1,1 2,2 0,1 0,2 1,3 0,1 0,2 1,3l1 2c0,1 1,2 1,3 0,1 0,2 1,3 0,1 0,2 1,3 0,1 0,2 0,3 1,1 1,2 1,3 0,1 1,2 1,3 0,1 0,2 0,3 1,1 1,2 1,3 0,1 0,2 0,3 0,1 0,2 1,3 0,1 0,2 0,3 0,1 0,2 0,3 0,1 0,2 0,3 0,1 0,2 0,3l0 474c0,66 -54,121 -121,121l-116 0 0 45c0,67 -54,121 -120,121 -67,0 -121,-54 -121,-121l0 -45 -116 0c-67,0 -121,-55 -121,-121 0,-67 54,-121 121,-121l236 0 1 0 0 0 116 0 0 -232z"/>
   <path class="fil10" d="M6007 5512l-1683 0c-34,0 -67,-15 -90,-41 -23,-26 -34,-61 -29,-95l161 -1310c8,-61 59,-106 120,-106l1359 0c61,0 112,45 120,106l161 1310c5,34 -6,69 -29,95 -23,26 -56,41 -90,41z"/>
   <path class="fil11" d="M5392 3960l0 -326 -454 0 0 326 -241 0 0 -447c0,-66 54,-121 121,-121l695 0c67,0 121,54 121,121l0 447 -242 0z"/>
  </g>
 </g>
</svg>
